<?xml version="1.0" standalone="no"?>
<!DOCTYPE svg PUBLIC "-//W3C//DTD SVG 20010904//EN"
 "http://www.w3.org/TR/2001/REC-SVG-20010904/DTD/svg10.dtd">
<svg version="1.0" xmlns="http://www.w3.org/2000/svg"
 width="426.000000pt" height="426.000000pt" viewBox="0 0 426.000000 426.000000"
 preserveAspectRatio="xMidYMid meet">
<metadata>
Created by potrace 1.11, written by Peter Selinger 2001-2013
</metadata>
<g transform="translate(0.000000,426.000000) scale(0.100000,-0.100000)"
fill="#000000" stroke="none">
<path d="M2243 4252 c-9 -6 -12 -105 -11 -389 0 -209 -2 -385 -6 -391 -4 -7
-17 -7 -36 -2 -44 13 -262 4 -351 -13 -281 -56 -528 -205 -684 -412 -207 -275
-260 -568 -158 -860 89 -250 409 -733 718 -1080 44 -50 103 -117 130 -150 125
-148 198 -225 211 -225 26 0 185 169 364 385 45 55 92 111 104 125 106 125
291 372 350 470 15 25 41 67 57 94 16 26 53 92 81 145 144 268 163 328 163
496 -1 119 -2 133 -25 230 -37 163 -143 340 -291 486 -81 81 -242 195 -259
184 -7 -4 -10 -171 -10 -493 0 -504 -2 -527 -43 -622 -22 -50 -73 -119 -121
-163 -53 -49 -187 -115 -251 -124 -232 -33 -457 82 -555 282 -38 77 -48 125
-45 216 6 216 155 400 378 464 55 16 205 24 224 12 5 -3 15 -2 23 3 12 8 15
54 15 272 0 256 1 263 20 263 11 0 94 -18 185 -41 91 -23 171 -39 177 -37 9 4
13 64 15 237 l3 231 190 5 190 5 3 180 c1 99 0 190 -3 202 l-5 22 -368 0
c-202 0 -373 -3 -379 -7z"/>
<path d="M850 436 c-19 -5 -56 -31 -81 -57 -39 -38 -49 -56 -59 -103 -22 -106
22 -200 115 -249 l40 -21 1260 0 c1009 0 1268 2 1298 13 103 35 164 161 131
272 -19 63 -61 111 -122 137 -47 20 -57 21 -1297 20 -855 -1 -1261 -4 -1285
-12z"/>
</g>
</svg>
